<?xml version="1.0" encoding="iso-8859-1"?>
<!-- Generator: Adobe Illustrator 19.0.0, SVG Export Plug-In . SVG Version: 6.00 Build 0)  -->
<svg version="1.1" id="Capa_1" xmlns="http://www.w3.org/2000/svg" xmlns:xlink="http://www.w3.org/1999/xlink" x="0px" y="0px"
	 viewBox="0 0 512 512" style="enable-background:new 0 0 512 512;" xml:space="preserve">
<path style="fill:#FAD97E;" d="M490.1,292.033H21.9c-7.953,0-14.4-6.447-14.4-14.4v-34.391c0-7.953,6.447-14.4,14.4-14.4h468.2
	c7.953,0,14.4,6.447,14.4,14.4v34.391C504.5,285.585,498.053,292.033,490.1,292.033z"/>
<path style="opacity:0.1;enable-background:new    ;" d="M490.1,228.841h-38.076c7.953,0,14.4,6.447,14.4,14.4v34.391
	c0,7.953-6.447,14.4-14.4,14.4H490.1c7.953,0,14.4-6.447,14.4-14.4v-34.391C504.5,235.288,498.053,228.841,490.1,228.841z"/>
<path style="fill:#A16B4E;" d="M466.424,292.033H45.576L66.66,445.369c2.439,17.741,17.599,30.959,35.507,30.959h307.666
	c17.908,0,33.068-13.218,35.507-30.959L466.424,292.033z"/>
<path style="opacity:0.1;enable-background:new    ;" d="M45.576,292.033l3.561,25.899h375.649L407.263,445.37
	c-2.439,17.741-17.599,30.959-35.507,30.959h38.076c17.908,0,33.068-13.218,35.507-30.959l17.523-127.438l3.561-25.899
	L45.576,292.033L45.576,292.033z"/>
<path style="fill:#A16B4E;" d="M427.222,228.842h-47.241v-94.743c0-28.224-22.962-51.186-51.186-51.186h-145.59
	c-28.224,0-51.186,22.962-51.186,51.186v94.743H84.778v-94.743c0-54.272,44.154-98.427,98.427-98.427h145.59
	c54.273,0,98.427,44.154,98.427,98.427V228.842z"/>
<rect x="84.78" y="202.94" style="opacity:0.1;enable-background:new    ;" width="47.24" height="25.902"/>
<rect x="379.98" y="202.94" style="opacity:0.1;enable-background:new    ;" width="47.24" height="25.902"/>
<rect x="193.91" y="35.672" style="fill:#FAD97E;" width="124.18" height="47.24"/>
<g style="opacity:0.1;">
	<path d="M152.938,438.938l6.718-6.718c2.929-2.929,2.929-7.678,0-10.606c-2.93-2.929-7.678-2.929-10.607,0l-6.717,6.717
		l-6.717-6.717l-6.717-6.718l6.717-6.718c2.929-2.929,2.929-7.678,0-10.606c-2.93-2.929-7.678-2.929-10.607,0l-6.717,6.717
		l-6.717-6.717c-2.93-2.929-7.678-2.929-10.607,0s-2.929,7.678,0,10.606l6.717,6.718l-6.717,6.718
		c-2.929,2.929-2.929,7.678,0,10.606c1.465,1.464,3.385,2.197,5.304,2.197s3.839-0.732,5.304-2.197l6.717-6.717l6.717,6.717
		l6.718,6.718l-6.718,6.718c-2.929,2.929-2.929,7.678,0,10.606c1.465,1.464,3.385,2.197,5.304,2.197s3.839-0.732,5.304-2.197
		l6.717-6.717l6.717,6.717c1.465,1.464,3.385,2.197,5.304,2.197s3.839-0.732,5.304-2.197c2.929-2.929,2.929-7.678,0-10.606
		L152.938,438.938z"/>
	<path d="M426.229,363.098l6.718-6.718c2.929-2.929,2.929-7.678-0.001-10.607c-2.928-2.93-7.677-2.929-10.606,0l-6.717,6.717
		l-6.717-6.717c-2.929-2.929-7.678-2.929-10.606,0c-2.93,2.929-2.93,7.677-0.001,10.607l6.718,6.718l-6.718,6.718
		c-2.929,2.929-2.929,7.678,0.001,10.607c1.464,1.465,3.384,2.197,5.303,2.197s3.839-0.732,5.304-2.197l6.717-6.717l6.717,6.717
		c1.465,1.465,3.384,2.197,5.304,2.197c1.919,0,3.839-0.732,5.303-2.197c2.93-2.929,2.93-7.677,0.001-10.607L426.229,363.098z"/>
</g>
<g style="opacity:0.3;">
	<ellipse style="fill:#F15B70;" cx="193.02" cy="369.52" rx="26.96" ry="11.698"/>
	<ellipse style="fill:#F15B70;" cx="318.98" cy="369.52" rx="26.96" ry="11.698"/>
</g>
<path d="M490.1,221.341h-55.378v-87.243c0-58.408-47.519-105.927-105.927-105.927h-145.59c-58.408,0-105.927,47.519-105.927,105.927
	v87.243H21.9c-12.076,0-21.9,9.824-21.9,21.9v34.391c0,12.076,9.824,21.9,21.9,21.9h17.137l14.35,104.365
	c0.517,3.757,3.731,6.479,7.42,6.479c0.341,0,0.685-0.023,1.031-0.071c4.103-0.564,6.973-4.348,6.408-8.452l-14.07-102.322h346.597
	c4.143,0,7.5-3.358,7.5-7.5s-3.357-7.5-7.5-7.5H21.9c-3.805,0-6.9-3.095-6.9-6.9V243.24c0-3.805,3.096-6.9,6.9-6.9h62.868
	c0.003,0,0.006,0.001,0.01,0.001c0.003,0,0.006-0.001,0.01-0.001h47.221c0.003,0,0.007,0.001,0.01,0.001s0.006-0.001,0.01-0.001
	h247.943c0.003,0,0.006,0.001,0.01,0.001c0.003,0,0.006-0.001,0.01-0.001h47.221c0.003,0,0.006,0.001,0.01,0.001
	c0.003,0,0.006-0.001,0.01-0.001H490.1c3.805,0,6.9,3.095,6.9,6.9v34.391c0,3.805-3.096,6.9-6.9,6.9h-56.094
	c-4.143,0-7.5,3.358-7.5,7.5s3.357,7.5,7.5,7.5h23.817L437.91,444.348c-1.92,13.956-13.99,24.48-28.077,24.48H102.167
	c-14.087,0-26.157-10.524-28.077-24.481l-1.696-12.333c-0.564-4.104-4.355-6.971-8.452-6.408c-4.102,0.564-6.972,4.349-6.407,8.452
	l1.696,12.332c2.935,21.343,21.394,37.438,42.937,37.438h307.666c21.543,0,40.002-16.095,42.936-37.438l20.193-146.859H490.1
	c12.076,0,21.9-9.824,21.9-21.9v-34.391C512,231.167,502.176,221.341,490.1,221.341z M296.755,43.172h13.835v32.241h-13.835V43.172z
	 M263.5,43.172h18.255v32.241H263.5V43.172z M230.245,43.172H248.5v32.241h-18.255V43.172z M201.41,43.172h13.835v32.241H201.41
	V43.172z M372.481,221.341H139.519v-48.044c0-4.142-3.357-7.5-7.5-7.5c-4.143,0-7.5,3.358-7.5,7.5v48.044h-32.24v-87.243
	c0-50.137,40.79-90.927,90.927-90.927h3.205v32.241h-3.205c-32.36,0-58.686,26.327-58.686,58.686v8.903c0,4.142,3.357,7.5,7.5,7.5
	c4.143,0,7.5-3.358,7.5-7.5v-8.903c0-24.088,19.598-43.686,43.686-43.686h145.59c24.089,0,43.687,19.598,43.687,43.686v87.243
	H372.481z M419.722,221.341h-32.24v-87.243c0-32.359-26.326-58.686-58.687-58.686h-3.205v-32.24h3.205
	c50.137,0,90.927,40.79,90.927,90.927V221.341z M326.482,343.492v-10.455c0-4.142-3.357-7.5-7.5-7.5s-7.5,3.358-7.5,7.5v10.455
	c0,4.142,3.357,7.5,7.5,7.5S326.482,347.634,326.482,343.492z M200.518,343.492v-10.455c0-4.142-3.357-7.5-7.5-7.5
	s-7.5,3.358-7.5,7.5v10.455c0,4.142,3.357,7.5,7.5,7.5C197.16,350.992,200.518,347.634,200.518,343.492z M256,359.02
	c8.531,0,16.645-3.695,22.26-10.137c2.722-3.122,2.397-7.86-0.727-10.582c-3.123-2.723-7.859-2.396-10.582,0.726
	c-2.765,3.173-6.757,4.993-10.951,4.993s-8.186-1.82-10.951-4.993c-2.723-3.123-7.461-3.448-10.582-0.726
	c-3.123,2.721-3.448,7.459-0.727,10.582C239.355,355.326,247.469,359.02,256,359.02z"/>
<g>
</g>
<g>
</g>
<g>
</g>
<g>
</g>
<g>
</g>
<g>
</g>
<g>
</g>
<g>
</g>
<g>
</g>
<g>
</g>
<g>
</g>
<g>
</g>
<g>
</g>
<g>
</g>
<g>
</g>
</svg>
